<svg id="Layer_1" data-name="Layer 1" xmlns="http://www.w3.org/2000/svg" width="59.84" height="105.63" viewBox="0 0 59.84 105.63"><defs><style>.cls-1{fill:#fff;}</style></defs><title>FD-symbol</title><path class="cls-1" d="M100.61,271.91h-19l-0.9,1,0.14,1.79H77.45l0.14-1.79-0.9-1h-19L56.76,273l1.65,10.9,0.89,0.74H75.85l0.9-.82,0.55-7.3h3.64l0.55,7.3,0.9,0.82H99l0.89-.74L101.5,273Zm-26,4.48L71,274.19h4.54Zm23.6,0-3.63-2.2h4.54Z" transform="translate(-49.01 -212.01)"/><path class="cls-1" d="M103.06,235.29c3.73,12.09-12,13.78-8.81,1.67,4.82-18.47-9.7-25-9.7-25,7.79,16.83-3.79,20.36-5.93,15.29S80,215.7,80,215.7a14.45,14.45,0,0,0-7.72,13.68c0.4,10-5.41,7.32-7.28,2.46s-10.67-2.34-10.67-2.34,10.86,2.37,5.06,12.27c-1,1.61-4.68,6.43-9.48-.78,0,0-1.81,8.79-.26,15.75l3.9,53.82,25.59,7.09,25.59-7.09,4.06-56C109.55,245.19,103.06,235.29,103.06,235.29ZM83,304H75.26l-4.76-2.51L74.74,299h8.77l4.25,2.49Zm19-9.67-9.21,4.84-6.52-3.63-7.11.15L72,295.54l-6.52,3.63-9.21-4.84L52.07,257h54.12Z" transform="translate(-49.01 -212.01)"/></svg>